# xmcd
#
# Track frame offsets: 
#        150
#        13895
#        25080
#        40015
#        56502
#        71590
#        90507
#        109685
#        124100
#        136930
#        155205
#
# Disc length: 2324 seconds
#
# Revision: 3
# Processed by: cddbd v1.5.2PL0 Copyright (c) Steve Scherf et al.
# Submitted via: ExactAudioCopyFreeDBPlugin 1.0
#
DISCID=8d09120b
DTITLE=Marty Stuart - Honky Tonkin's What I Do Best
DYEAR=1996
DGENRE=Country
TTITLE0=Honky Tonkin's What I Do Best (with Travis Tritt)
TTITLE1=Country Girls
TTITLE2=Thanks To You
TTITLE3=Shelter From The Storm
TTITLE4=Sweet Love
TTITLE5=I'll Be There For You
TTITLE6=The Mississippi Mudcat and Sister Sheryl Crow (feat. Jimmy Marti
TTITLE6=n)
TTITLE7=Rocket Ship
TTITLE8=Country
TTITLE9=You Can't Stop Love
TTITLE10=So Many People
EXTD=
EXTT0=
EXTT1=
EXTT2=
EXTT3=
EXTT4=
EXTT5=
EXTT6=featuring "King" Jimmy Martin and his country music coon\ndogs a
EXTT6=nd beagle hounds
EXTT7=
EXTT8=
EXTT9=
EXTT10=
PLAYORDER=
